<?xml version="1.0" encoding="UTF-8"?>
<svg xmlns="http://www.w3.org/2000/svg" xmlns:xlink="http://www.w3.org/1999/xlink" width="20px" height="22px" viewBox="0 0 20 22" version="1.1">
<g id="surface1">
<path style=" stroke:none;fill-rule:evenodd;fill:rgb(0%,0%,0%);fill-opacity:1;" d="M 12.5 17.1875 C 12.5 17.566406 12.21875 17.875 11.875 17.875 L 1.875 17.875 C 1.53125 17.875 1.25 17.566406 1.25 17.1875 L 1.25 4.8125 C 1.25 4.433594 1.53125 4.125 1.875 4.125 L 11.875 4.125 C 12.21875 4.125 12.5 4.433594 12.5 4.8125 L 12.5 7.5625 C 12.5 7.941406 12.78125 8.25 13.125 8.25 C 13.46875 8.25 13.75 7.941406 13.75 7.5625 L 13.75 4.8125 C 13.75 3.671875 12.910156 2.75 11.875 2.75 L 1.875 2.75 C 0.839844 2.75 0 3.671875 0 4.8125 L 0 17.1875 C 0 18.328125 0.839844 19.25 1.875 19.25 L 11.875 19.25 C 12.910156 19.25 13.75 18.328125 13.75 17.1875 L 13.75 14.4375 C 13.75 14.058594 13.46875 13.75 13.125 13.75 C 12.78125 13.75 12.5 14.058594 12.5 14.4375 Z M 12.5 17.1875 "/>
<path style=" stroke:none;fill-rule:evenodd;fill:rgb(0%,0%,0%);fill-opacity:1;" d="M 19.816406 11.488281 C 19.933594 11.359375 20 11.183594 20 11 C 20 10.816406 19.933594 10.640625 19.816406 10.511719 L 16.066406 6.386719 C 15.824219 6.121094 15.425781 6.121094 15.183594 6.386719 C 14.9375 6.65625 14.9375 7.09375 15.183594 7.363281 L 17.867188 10.3125 L 6.875 10.3125 C 6.53125 10.3125 6.25 10.621094 6.25 11 C 6.25 11.378906 6.53125 11.6875 6.875 11.6875 L 17.867188 11.6875 L 15.183594 14.636719 C 14.9375 14.90625 14.9375 15.34375 15.183594 15.613281 C 15.425781 15.878906 15.824219 15.878906 16.066406 15.613281 Z M 19.816406 11.488281 "/>
</g>
</svg>
