<?xml version="1.0" encoding="UTF-8"?>
<svg xmlns="http://www.w3.org/2000/svg" xmlns:xlink="http://www.w3.org/1999/xlink" width="32px" height="27px" viewBox="0 0 32 27" version="1.1">
<g id="surface1">
<path style=" stroke:none;fill-rule:nonzero;fill:rgb(0%,0%,0%);fill-opacity:1;" d="M 22 10.125 C 22 12.921875 19.3125 15.1875 16 15.1875 C 12.6875 15.1875 10 12.921875 10 10.125 C 10 7.328125 12.6875 5.0625 16 5.0625 C 19.3125 5.0625 22 7.328125 22 10.125 Z M 22 10.125 "/>
<path style=" stroke:none;fill-rule:evenodd;fill:rgb(0%,0%,0%);fill-opacity:1;" d="M 0 13.5 C 0 6.042969 7.164062 0 16 0 C 24.835938 0 32 6.042969 32 13.5 C 32 20.957031 24.835938 27 16 27 C 7.164062 27 0 20.957031 0 13.5 Z M 16 1.6875 C 10.621094 1.6875 5.714844 4.289062 3.382812 8.378906 C 1.050781 12.472656 1.707031 17.328125 5.0625 20.875 C 6.484375 18.945312 9.609375 16.875 16 16.875 C 22.390625 16.875 25.515625 18.941406 26.9375 20.875 C 30.292969 17.328125 30.949219 12.472656 28.617188 8.378906 C 26.285156 4.289062 21.378906 1.6875 16 1.6875 Z M 16 1.6875 "/>
</g>
</svg>
